<svg width="160" height="232" viewBox="0 0 160 232" fill="none" xmlns="http://www.w3.org/2000/svg">
<path d="M160 185.392V223.653C150.052 217.705 138.087 214.262 125.217 214.262C114.713 214.262 104.835 216.557 96.1391 220.627C90.1217 223.444 84.6609 227.097 80 231.444C75.3391 227.097 69.8783 223.444 63.8609 220.627C55.1652 216.557 45.287 214.262 34.7826 214.262C21.913 214.262 9.94783 217.705 0 223.653V185.392C6.26087 181.636 13.287 178.888 20.8696 177.392C25.3565 176.488 30.0174 176.001 34.7826 176.001C38.3304 176.001 41.8435 176.279 45.2174 176.766C58.7826 178.784 70.887 184.697 80 193.184C89.113 184.697 101.217 178.784 114.783 176.766C118.157 176.279 121.67 176.001 125.217 176.001C129.983 176.001 134.643 176.488 139.13 177.392C146.713 178.888 153.739 181.636 160 185.392Z" fill="#66E094"/>
<path d="M80 0C35.8261 0 0 35.8261 0 80C0 124.174 35.8261 160 80 160C124.174 160 160 124.174 160 80C160 35.8261 124.174 0 80 0ZM80 121.739C56.9391 121.739 38.2609 103.061 38.2609 80C38.2609 56.9391 56.9391 38.2609 80 38.2609C103.061 38.2609 121.739 56.9391 121.739 80C121.739 103.061 103.061 121.739 80 121.739Z" fill="white"/>
</svg>
